<svg xmlns="http://www.w3.org/2000/svg" viewBox="35 80 1130 300" role="img" aria-labelledby="title desc">
<title id="title">Trace Racing</title>
<desc id="desc">Trace Racing logo with a checkered flag and red racing line.</desc>
<rect width="1200" height="480" fill="none"/>

<g id="checkered-flag">
  <rect x="52" y="120" width="34" height="34" fill="#fff"/>
  <rect x="86" y="120" width="34" height="34" fill="#0b0b0b"/>
  <rect x="120" y="120" width="34" height="34" fill="#fff"/>
  <rect x="52" y="154" width="34" height="34" fill="#0b0b0b"/>
  <rect x="86" y="154" width="34" height="34" fill="#fff"/>
  <rect x="120" y="154" width="34" height="34" fill="#0b0b0b"/>
  <rect x="52" y="188" width="34" height="34" fill="#fff"/>
  <rect x="86" y="188" width="34" height="34" fill="#0b0b0b"/>
  <rect x="120" y="188" width="34" height="34" fill="#fff"/>
</g>

<path d="M160 1226H613L410 0H718L920 1226H1372L1416 1490H205Z" transform="translate(190.00,230.00) scale(0.073242,-0.073242)" fill="#FFFFFF"/>
<path d="M24 0H332L418 521H688C694 521 699 521 704 521L882 0H1198L995 579C1175 656 1299 804 1332 1001C1381 1301 1199 1490 864 1490H271ZM459 768 536 1234H805C968 1234 1054 1147 1031 1005C1007 863 891 768 729 768Z" transform="translate(283.36,230.00) scale(0.073242,-0.073242)" fill="#FFFFFF"/>
<path d="M-78 0H265L427 325H983L1034 0H1364L1088 1490H692ZM550 571 627 725C700 877 772 1029 856 1214C878 1029 899 877 920 725L944 571Z" transform="translate(378.92,230.00) scale(0.073242,-0.073242)" fill="#FFFFFF"/>
<path d="M696 -24C1037 -24 1324 191 1427 523H1116C1049 348 897 248 714 248C505 248 395 379 395 596C395 906 576 1242 910 1242C1079 1242 1183 1141 1190 965H1500C1507 1303 1271 1514 919 1514C416 1514 88 1079 88 593C88 210 330 -24 696 -24Z" transform="translate(483.93,230.00) scale(0.073242,-0.073242)" fill="#FFFFFF"/>
<path d="M24 0H1093L1136 264H375L435 624H1139L1182 881H478L534 1226H1296L1340 1490H271Z" transform="translate(591.42,230.00) scale(0.073242,-0.073242)" fill="#FFFFFF"/>
<path d="M24 0H332L418 521H688C694 521 699 521 704 521L882 0H1198L995 579C1175 656 1299 804 1332 1001C1381 1301 1199 1490 864 1490H271ZM459 768 536 1234H805C968 1234 1054 1147 1031 1005C1007 863 891 768 729 768Z" transform="translate(205.00,365.00) scale(0.059570,-0.059570)" fill="#E10600"/>
<path d="M-78 0H265L427 325H983L1034 0H1364L1088 1490H692ZM550 571 627 725C700 877 772 1029 856 1214C878 1029 899 877 920 725L944 571Z" transform="translate(282.85,365.00) scale(0.059570,-0.059570)" fill="#E10600"/>
<path d="M696 -24C1037 -24 1324 191 1427 523H1116C1049 348 897 248 714 248C505 248 395 379 395 596C395 906 576 1242 910 1242C1079 1242 1183 1141 1190 965H1500C1507 1303 1271 1514 919 1514C416 1514 88 1079 88 593C88 210 330 -24 696 -24Z" transform="translate(368.38,365.00) scale(0.059570,-0.059570)" fill="#E10600"/>
<path d="M579 1490H271L24 0H332Z" transform="translate(455.94,365.00) scale(0.059570,-0.059570)" fill="#E10600"/>
<path d="M24 0H332L446 691C457 756 478 886 498 1045C559 891 615 759 647 690L969 0H1287L1534 1490H1227L1104 753C1094 689 1075 565 1059 449C1017 556 971 671 945 728L590 1490H271Z" transform="translate(486.07,365.00) scale(0.059570,-0.059570)" fill="#E10600"/>
<path d="M696 -24C1075 -24 1383 222 1444 592L1477 792H850L811 558H1137C1098 378 928 248 718 248C510 248 395 378 395 598C395 903 575 1242 911 1242C1085 1242 1183 1143 1186 991H1499C1513 1309 1255 1514 915 1514C422 1514 88 1083 88 595C88 219 321 -24 696 -24Z" transform="translate(573.09,365.00) scale(0.059570,-0.059570)" fill="#E10600"/>
<path d="M72 294 C260 252 505 268 774 296 C926 312 1064 302 1140 250 C1074 338 928 374 742 366 C498 356 282 326 72 350 C122 332 150 313 72 294 Z" fill="#E10600"/>
</svg>
